<svg xmlns="http://www.w3.org/2000/svg" width="579" height="280" viewBox="0 0 579 280" version="1.1"><path d="M 77.500 60.392 C 75.300 61.182, 70.971 62.336, 67.880 62.958 C 49.459 66.662, 28.931 83.440, 19.502 102.500 C 11.691 118.291, 9.242 132.285, 11.627 147.500 C 15.300 170.935, 27.099 189.578, 46.337 202.348 C 66.338 215.624, 90.362 218.341, 114.602 210.068 C 136.209 202.694, 156.500 181.089, 162.631 158.929 C 163.958 154.133, 164.421 148.689, 164.455 137.500 C 164.506 120.609, 162.919 113.430, 156.368 100.909 C 149.718 88.200, 135.578 74.526, 122.485 68.141 C 107.772 60.968, 86.235 57.258, 77.500 60.392 M 71.468 68.877 C 50.854 73.949, 33.614 88.091, 24.383 107.500 C 19.477 117.815, 17.662 125.943, 17.685 137.500 C 17.763 176.932, 49.051 208, 88.685 208 C 106.930 208, 123.945 200.962, 137.036 188 C 146.165 178.961, 149.917 173.378, 153.937 162.849 C 171.629 116.521, 137.563 66.710, 88.436 67.074 C 82.646 67.117, 75.566 67.869, 71.468 68.877 M 72 73.974 C 63.057 76.441, 58.602 78.485, 50.849 83.678 C 33.026 95.617, 22.404 116.080, 22.653 138 C 23.014 169.729, 46.059 196.877, 76.998 202.018 C 85.814 203.483, 99.006 202.784, 107 200.428 C 125.693 194.919, 142.542 179.191, 149.424 160.827 C 155.703 144.073, 154.523 122.579, 146.464 106.913 C 143.654 101.450, 136.437 92.541, 130.754 87.520 C 124.451 81.952, 111.935 75.655, 103 73.556 C 94.352 71.525, 80.184 71.716, 72 73.974 M 84.461 79.002 C 78.923 79.802, 74.753 81.670, 70.370 85.312 C 68.496 86.870, 65.642 87.911, 62.148 88.314 C 50.286 89.679, 39.090 101.149, 39.022 112.003 C 39.007 114.386, 37.868 117.099, 35.461 120.485 C 27.093 132.254, 27.396 144.902, 36.301 155.616 C 37.845 157.474, 38.910 160.343, 39.294 163.682 C 40.052 170.280, 42.878 175.807, 47.618 179.970 C 52.115 183.918, 55.846 185.567, 62.500 186.545 C 65.550 186.993, 68.670 188.261, 70.500 189.795 C 80.506 198.182, 96.816 198.077, 106 189.565 C 107.654 188.032, 110.326 187.019, 113.895 186.570 C 120.609 185.727, 125.410 183.297, 130.254 178.288 C 134.176 174.234, 138 165.278, 138 160.147 C 138 158.551, 138.701 156.663, 139.558 155.952 C 142.681 153.360, 145.946 146.308, 146.601 140.741 C 147.444 133.563, 145.723 127.101, 141.493 121.559 C 139.436 118.864, 138.098 115.734, 137.671 112.616 C 135.836 99.230, 126.516 89.778, 113.682 88.288 C 109.856 87.844, 107.521 86.854, 104.758 84.504 C 101.541 81.768, 96.831 79.738, 91 78.573 C 90.175 78.408, 87.233 78.601, 84.461 79.002 M 84.687 84.121 C 80.051 84.825, 74.980 87.265, 75.018 88.773 C 75.029 89.173, 77.162 90.850, 79.760 92.500 C 84.597 95.573, 86.273 98.574, 83.703 99.560 C 82.908 99.865, 80.545 98.953, 78.452 97.532 C 73.536 94.196, 70.047 93.311, 68.917 95.115 C 68.440 95.877, 67.517 98.862, 66.866 101.750 C 65.985 105.657, 65.229 107, 63.914 107 C 61.641 107, 61.202 104.676, 62.353 98.721 C 62.861 96.093, 63.079 93.745, 62.837 93.504 C 62.596 93.263, 60.629 93.608, 58.467 94.271 C 53.079 95.925, 46.512 102.473, 44.944 107.756 C 43.452 112.779, 43.814 113.402, 47.426 112.028 C 51.602 110.440, 56.963 110.740, 57.677 112.601 C 58.453 114.622, 56.788 115.655, 51.470 116.452 C 49.160 116.799, 46.484 117.657, 45.522 118.360 C 43.873 119.566, 43.900 119.884, 46.003 124.006 C 47.229 126.409, 48.835 128.978, 49.573 129.716 C 50.311 130.454, 50.661 131.720, 50.351 132.529 C 49.229 135.452, 46.204 133.993, 42.985 128.977 C 39.144 122.991, 37.916 123.419, 35.321 131.651 C 33.851 136.314, 33.786 137.753, 34.861 141.793 C 35.550 144.382, 36.837 147.609, 37.720 148.964 C 39.252 151.313, 39.378 151.340, 40.414 149.534 C 42.990 145.042, 47.723 140.680, 49.346 141.303 C 51.603 142.169, 51.429 143.337, 48.528 146.784 C 41.672 154.932, 43.297 157.661, 56 159.330 C 56.825 159.439, 57.500 160.421, 57.500 161.514 C 57.500 163.167, 56.830 163.497, 53.500 163.484 C 51.300 163.475, 48.201 163.113, 46.614 162.681 C 43.781 161.908, 43.740 161.954, 44.373 165.197 C 45.755 172.275, 54.690 180.938, 60.654 180.984 C 62.664 180.999, 62.798 180.547, 62.654 174.250 C 62.531 168.848, 62.800 167.500, 64 167.500 C 64.939 167.500, 65.824 168.996, 66.366 171.500 C 67.764 177.953, 69.144 181, 70.671 181 C 72.433 181, 77.904 178.281, 80.213 176.258 C 82.191 174.524, 85 175.230, 85 177.461 C 85 178.299, 82.759 180.451, 80.019 182.242 C 77.280 184.034, 75.169 185.950, 75.329 186.500 C 75.949 188.637, 82.627 190.996, 88 190.976 C 93.548 190.956, 102 188.022, 102 186.116 C 102 185.576, 101.098 184.848, 99.995 184.498 C 96.732 183.463, 92 178.972, 92 176.911 C 92 174.407, 95.152 174.405, 97.417 176.909 C 99.609 179.330, 104.528 181.395, 106.396 180.678 C 107.183 180.376, 108.388 177.512, 109.072 174.314 C 110.516 167.569, 111.063 166.703, 113.333 167.574 C 115.294 168.327, 115.472 171.693, 113.840 177.140 C 113.202 179.270, 112.894 181.227, 113.156 181.489 C 113.993 182.327, 120.184 180.131, 123.624 177.777 C 127.215 175.319, 132 167.529, 132 164.140 C 132 162.305, 131.604 162.136, 128.750 162.751 C 123.227 163.943, 118.500 163.647, 118.500 162.109 C 118.500 160.373, 120.487 159.277, 125 158.522 C 126.925 158.200, 129.312 157.321, 130.305 156.568 C 131.985 155.294, 132.001 154.967, 130.537 151.850 C 129.672 150.007, 128.192 147.278, 127.247 145.785 C 125.863 143.599, 125.775 142.825, 126.792 141.808 C 128.577 140.023, 130.971 141.736, 133.825 146.841 C 135.104 149.128, 136.515 151, 136.961 151 C 137.407 151, 138.611 149.313, 139.636 147.250 C 142.215 142.062, 142.152 131.657, 139.514 127.250 C 138.444 125.463, 137.283 124, 136.934 124 C 136.585 124, 134.900 126.250, 133.191 129 C 131.107 132.352, 129.410 134, 128.041 134 C 125.568 134, 125.275 130.868, 127.536 128.606 C 128.381 127.761, 129.774 125.392, 130.631 123.341 C 132.077 119.879, 132.062 119.519, 130.421 118.318 C 129.448 117.607, 127.043 116.771, 125.076 116.459 C 120.513 115.736, 118.500 114.644, 118.500 112.891 C 118.500 111.083, 124.196 110.524, 128.244 111.935 C 129.938 112.526, 131.530 112.803, 131.782 112.551 C 133.199 111.135, 130.430 104.337, 126.859 100.463 C 123.049 96.330, 114.715 91.952, 113.317 93.349 C 112.967 93.700, 113.202 95.730, 113.840 97.860 C 114.478 99.989, 115 102.949, 115 104.436 C 115 106.641, 114.600 107.080, 112.829 106.820 C 111.100 106.565, 110.338 105.282, 109.078 100.500 C 107.154 93.199, 105.397 92.581, 98.963 96.940 C 93.548 100.609, 92 100.752, 92 97.586 C 92 95.766, 93.230 94.415, 97 92.095 C 99.750 90.403, 102 88.801, 102 88.535 C 102 87.749, 96.773 85.292, 93 84.305 C 91.075 83.802, 87.334 83.719, 84.687 84.121 M 518.750 107.785 C 517.237 107.976, 516 108.361, 516 108.640 C 516 108.919, 519.375 114.359, 523.500 120.728 C 527.625 127.098, 531 132.825, 531 133.455 C 531 134.086, 526.957 141.328, 522.015 149.551 C 517.074 157.773, 513.024 164.838, 513.015 165.250 C 513.007 165.662, 515.487 166, 518.527 166 L 524.053 166 531.133 155 C 535.027 148.950, 538.581 144, 539.030 144 C 539.884 144, 546.763 154.104, 551.454 162.250 C 554.186 166.993, 554.198 167, 559.595 167 C 563.688 167, 565 166.643, 565 165.528 C 565 164.718, 560.878 157.284, 555.841 149.009 C 545.304 131.699, 545.321 135.157, 555.695 119.093 C 559.102 113.817, 561.527 109.135, 561.084 108.689 C 559.719 107.316, 551.902 107.669, 550.399 109.173 C 549.623 109.949, 547.078 113.490, 544.744 117.042 C 542.410 120.594, 539.825 123.619, 539 123.764 C 537.641 124.002, 536.211 122.157, 532.312 115.135 C 528.265 107.846, 526.372 106.820, 518.750 107.785 M 208.198 119.708 C 205.995 126.194, 201.449 139.221, 198.096 148.658 C 194.743 158.095, 192 166.082, 192 166.408 C 192 167.155, 198.809 167.158, 201.587 166.412 C 202.771 166.094, 204.603 163.939, 205.824 161.426 L 207.974 157 219.023 157 L 230.071 157 231.987 161.469 C 233.340 164.626, 234.652 166.126, 236.458 166.579 C 239.326 167.299, 246 166.310, 246 165.166 C 246 164.757, 243.030 155.890, 239.399 145.461 C 235.769 135.033, 232.195 124.700, 231.458 122.500 C 230.720 120.300, 229.283 116.250, 228.264 113.500 L 226.412 108.500 219.308 108.208 L 212.204 107.916 208.198 119.708 M 421.483 109.250 C 420.805 111.117, 420.468 129.275, 420.750 148.750 L 421 166 426.500 166 C 430.722 166, 432 165.652, 432 164.500 C 432 162.594, 432.486 162.617, 435.622 164.672 C 439.120 166.964, 449.854 166.797, 453.522 164.394 C 464.364 157.289, 465.459 133.332, 455.265 126.232 C 452.019 123.971, 446.580 122, 443.586 122 C 442.422 122, 439.791 122.900, 437.739 124 C 435.686 125.100, 433.556 126, 433.004 126 C 432.406 126, 432 122.355, 432 117 L 432 108 426.969 108 C 423.852 108, 421.764 108.476, 421.483 109.250 M 271 123.125 C 269.075 123.692, 267.121 124.523, 266.657 124.971 C 266.194 125.419, 264.619 125.161, 263.157 124.399 C 261.696 123.636, 258.830 123.010, 256.789 123.006 L 253.077 123 252.789 144.099 C 252.630 155.703, 252.768 165.629, 253.095 166.157 C 253.422 166.684, 256.122 166.977, 259.095 166.808 L 264.500 166.500 264.819 151.002 C 265.207 132.162, 266.192 130.336, 274.726 132.624 C 276.901 133.207, 276.959 133.611, 277.226 149.860 L 277.500 166.500 283.250 166.800 L 289 167.100 289 151.772 C 289 139.908, 289.332 135.971, 290.469 134.347 C 293.579 129.908, 299.261 130.988, 301.544 136.452 C 302.575 138.919, 303 143.885, 303 153.468 L 303 167 308.597 167 L 314.194 167 313.804 149.250 C 313.329 127.690, 312.442 124.735, 305.916 122.977 C 301.160 121.697, 295.854 122.384, 291.740 124.814 C 289.179 126.326, 288.745 126.320, 285.740 124.741 C 281.498 122.510, 275.365 121.838, 271 123.125 M 335.815 122.918 C 331.077 123.877, 325.641 128.046, 322.239 133.330 C 319.989 136.825, 319.549 138.634, 319.527 144.500 C 319.504 150.577, 319.896 152.129, 322.500 156.271 C 324.150 158.895, 327.300 162.270, 329.500 163.771 C 333.042 166.188, 334.424 166.500, 341.579 166.500 C 348.872 166.500, 350.012 166.230, 353.300 163.721 C 361.905 157.156, 365.215 149.009, 363.107 139.587 C 360.402 127.499, 348.649 120.321, 335.815 122.918 M 387 122.593 C 376.764 126.370, 371.490 132.235, 369.641 141.898 C 368.790 146.346, 371.513 154.953, 375.178 159.400 C 383.361 169.327, 399.819 169.380, 409 159.510 L 411.500 156.823 408.500 154.416 C 404.780 151.433, 404.826 151.432, 399.378 154.624 C 393.348 158.158, 387.146 157.607, 382.680 153.141 C 380.987 151.449, 379.845 149.821, 380.142 149.525 C 380.438 149.228, 388.174 148.842, 397.333 148.667 C 406.491 148.492, 414.244 148.089, 414.561 147.772 C 415.736 146.597, 412.908 135.460, 410.518 131.848 C 407.156 126.767, 400.392 122.966, 393.797 122.452 C 390.884 122.225, 387.825 122.288, 387 122.593 M 480 122.875 C 478.075 123.292, 475.487 124.273, 474.250 125.057 C 472.084 126.428, 469 131.624, 469 133.901 C 469 135.536, 478.019 135.239, 481.364 133.494 C 486.331 130.903, 493 131.758, 493 134.985 C 493 137.451, 491.344 138.466, 485.054 139.854 C 476.234 141.800, 471.291 144.768, 469.004 149.491 C 467.902 151.768, 467 154.182, 467 154.856 C 467 157.624, 471.217 164.061, 473.960 165.479 C 477.718 167.423, 484.051 167.423, 488.699 165.481 C 491.974 164.113, 492.751 164.121, 496.538 165.568 C 498.850 166.451, 501.812 167.022, 503.121 166.836 L 505.500 166.500 505.396 149.441 C 505.282 130.612, 504.615 127.832, 499.499 124.854 C 496.069 122.857, 485.187 121.753, 480 122.875 M 218.183 125 C 217.105 127.545, 213.605 139.259, 212.430 144.250 L 211.783 147 218.892 147 C 224.904 147, 226 146.739, 226 145.307 C 226 143.647, 221.656 128.447, 220.053 124.500 C 219.280 122.595, 219.191 122.619, 218.183 125 M 439.284 131.771 C 438.065 131.968, 435.882 133.540, 434.432 135.263 C 432.041 138.105, 431.832 139.021, 432.178 145.149 C 432.669 153.830, 435.185 157, 441.585 157 C 445.089 157, 446.270 156.467, 448.411 153.923 C 452.869 148.626, 451.758 135.639, 446.640 133.201 C 443.500 131.705, 441.765 131.368, 439.284 131.771 M 336.418 132.969 C 332.268 134.648, 329 139.813, 329 144.694 C 329 148.636, 329.513 149.748, 332.882 153.118 C 336.209 156.444, 337.390 156.999, 341.132 156.996 C 351.523 156.987, 356.968 148.057, 352.423 138.478 C 349.926 133.217, 342.297 130.591, 336.418 132.969 M 387.210 133.508 C 383.530 135.107, 381 137.315, 381 138.929 C 381 140.262, 401.583 140.719, 402.911 139.415 C 403.725 138.616, 399.430 134.695, 396.282 133.362 C 392.326 131.688, 391.364 131.703, 387.210 133.508 M 486.210 147.676 C 478.189 150.513, 477.008 157, 484.512 157 C 488.898 157, 491.933 154.300, 492.661 149.750 C 493.349 145.455, 492.898 145.310, 486.210 147.676" stroke="none" fill="#d02f38" fill-rule="evenodd"/><path d="M 0 140.002 L 0 280.003 289.750 279.752 L 579.500 279.500 579.753 139.750 L 580.007 0 290.003 0 L 0 0 0 140.002 M 0.486 140.500 C 0.486 217.500, 0.605 248.852, 0.750 210.172 C 0.895 171.491, 0.895 108.491, 0.750 70.172 C 0.605 31.852, 0.486 63.500, 0.486 140.500 M 77.500 60.392 C 75.300 61.182, 70.971 62.336, 67.880 62.958 C 49.459 66.662, 28.931 83.440, 19.502 102.500 C 11.691 118.291, 9.242 132.285, 11.627 147.500 C 15.300 170.935, 27.099 189.578, 46.337 202.348 C 66.338 215.624, 90.362 218.341, 114.602 210.068 C 136.209 202.694, 156.500 181.089, 162.631 158.929 C 163.958 154.133, 164.421 148.689, 164.455 137.500 C 164.506 120.609, 162.919 113.430, 156.368 100.909 C 149.718 88.200, 135.578 74.526, 122.485 68.141 C 107.772 60.968, 86.235 57.258, 77.500 60.392 M 71.468 68.877 C 50.854 73.949, 33.614 88.091, 24.383 107.500 C 19.477 117.815, 17.662 125.943, 17.685 137.500 C 17.763 176.932, 49.051 208, 88.685 208 C 106.930 208, 123.945 200.962, 137.036 188 C 146.165 178.961, 149.917 173.378, 153.937 162.849 C 171.629 116.521, 137.563 66.710, 88.436 67.074 C 82.646 67.117, 75.566 67.869, 71.468 68.877 M 72 73.974 C 63.057 76.441, 58.602 78.485, 50.849 83.678 C 33.026 95.617, 22.404 116.080, 22.653 138 C 23.014 169.729, 46.059 196.877, 76.998 202.018 C 85.814 203.483, 99.006 202.784, 107 200.428 C 125.693 194.919, 142.542 179.191, 149.424 160.827 C 155.703 144.073, 154.523 122.579, 146.464 106.913 C 143.654 101.450, 136.437 92.541, 130.754 87.520 C 124.451 81.952, 111.935 75.655, 103 73.556 C 94.352 71.525, 80.184 71.716, 72 73.974 M 84.461 79.002 C 78.923 79.802, 74.753 81.670, 70.370 85.312 C 68.496 86.870, 65.642 87.911, 62.148 88.314 C 50.286 89.679, 39.090 101.149, 39.022 112.003 C 39.007 114.386, 37.868 117.099, 35.461 120.485 C 27.093 132.254, 27.396 144.902, 36.301 155.616 C 37.845 157.474, 38.910 160.343, 39.294 163.682 C 40.052 170.280, 42.878 175.807, 47.618 179.970 C 52.115 183.918, 55.846 185.567, 62.500 186.545 C 65.550 186.993, 68.670 188.261, 70.500 189.795 C 80.506 198.182, 96.816 198.077, 106 189.565 C 107.654 188.032, 110.326 187.019, 113.895 186.570 C 120.609 185.727, 125.410 183.297, 130.254 178.288 C 134.176 174.234, 138 165.278, 138 160.147 C 138 158.551, 138.701 156.663, 139.558 155.952 C 142.681 153.360, 145.946 146.308, 146.601 140.741 C 147.444 133.563, 145.723 127.101, 141.493 121.559 C 139.436 118.864, 138.098 115.734, 137.671 112.616 C 135.836 99.230, 126.516 89.778, 113.682 88.288 C 109.856 87.844, 107.521 86.854, 104.758 84.504 C 101.541 81.768, 96.831 79.738, 91 78.573 C 90.175 78.408, 87.233 78.601, 84.461 79.002 M 84.687 84.121 C 80.051 84.825, 74.980 87.265, 75.018 88.773 C 75.029 89.173, 77.162 90.850, 79.760 92.500 C 84.597 95.573, 86.273 98.574, 83.703 99.560 C 82.908 99.865, 80.545 98.953, 78.452 97.532 C 73.536 94.196, 70.047 93.311, 68.917 95.115 C 68.440 95.877, 67.517 98.862, 66.866 101.750 C 65.985 105.657, 65.229 107, 63.914 107 C 61.641 107, 61.202 104.676, 62.353 98.721 C 62.861 96.093, 63.079 93.745, 62.837 93.504 C 62.596 93.263, 60.629 93.608, 58.467 94.271 C 53.079 95.925, 46.512 102.473, 44.944 107.756 C 43.452 112.779, 43.814 113.402, 47.426 112.028 C 51.602 110.440, 56.963 110.740, 57.677 112.601 C 58.453 114.622, 56.788 115.655, 51.470 116.452 C 49.160 116.799, 46.484 117.657, 45.522 118.360 C 43.873 119.566, 43.900 119.884, 46.003 124.006 C 47.229 126.409, 48.835 128.978, 49.573 129.716 C 50.311 130.454, 50.661 131.720, 50.351 132.529 C 49.229 135.452, 46.204 133.993, 42.985 128.977 C 39.144 122.991, 37.916 123.419, 35.321 131.651 C 33.851 136.314, 33.786 137.753, 34.861 141.793 C 35.550 144.382, 36.837 147.609, 37.720 148.964 C 39.252 151.313, 39.378 151.340, 40.414 149.534 C 42.990 145.042, 47.723 140.680, 49.346 141.303 C 51.603 142.169, 51.429 143.337, 48.528 146.784 C 41.672 154.932, 43.297 157.661, 56 159.330 C 56.825 159.439, 57.500 160.421, 57.500 161.514 C 57.500 163.167, 56.830 163.497, 53.500 163.484 C 51.300 163.475, 48.201 163.113, 46.614 162.681 C 43.781 161.908, 43.740 161.954, 44.373 165.197 C 45.755 172.275, 54.690 180.938, 60.654 180.984 C 62.664 180.999, 62.798 180.547, 62.654 174.250 C 62.531 168.848, 62.800 167.500, 64 167.500 C 64.939 167.500, 65.824 168.996, 66.366 171.500 C 67.764 177.953, 69.144 181, 70.671 181 C 72.433 181, 77.904 178.281, 80.213 176.258 C 82.191 174.524, 85 175.230, 85 177.461 C 85 178.299, 82.759 180.451, 80.019 182.242 C 77.280 184.034, 75.169 185.950, 75.329 186.500 C 75.949 188.637, 82.627 190.996, 88 190.976 C 93.548 190.956, 102 188.022, 102 186.116 C 102 185.576, 101.098 184.848, 99.995 184.498 C 96.732 183.463, 92 178.972, 92 176.911 C 92 174.407, 95.152 174.405, 97.417 176.909 C 99.609 179.330, 104.528 181.395, 106.396 180.678 C 107.183 180.376, 108.388 177.512, 109.072 174.314 C 110.516 167.569, 111.063 166.703, 113.333 167.574 C 115.294 168.327, 115.472 171.693, 113.840 177.140 C 113.202 179.270, 112.894 181.227, 113.156 181.489 C 113.993 182.327, 120.184 180.131, 123.624 177.777 C 127.215 175.319, 132 167.529, 132 164.140 C 132 162.305, 131.604 162.136, 128.750 162.751 C 123.227 163.943, 118.500 163.647, 118.500 162.109 C 118.500 160.373, 120.487 159.277, 125 158.522 C 126.925 158.200, 129.312 157.321, 130.305 156.568 C 131.985 155.294, 132.001 154.967, 130.537 151.850 C 129.672 150.007, 128.192 147.278, 127.247 145.785 C 125.863 143.599, 125.775 142.825, 126.792 141.808 C 128.577 140.023, 130.971 141.736, 133.825 146.841 C 135.104 149.128, 136.515 151, 136.961 151 C 137.407 151, 138.611 149.313, 139.636 147.250 C 142.215 142.062, 142.152 131.657, 139.514 127.250 C 138.444 125.463, 137.283 124, 136.934 124 C 136.585 124, 134.900 126.250, 133.191 129 C 131.107 132.352, 129.410 134, 128.041 134 C 125.568 134, 125.275 130.868, 127.536 128.606 C 128.381 127.761, 129.774 125.392, 130.631 123.341 C 132.077 119.879, 132.062 119.519, 130.421 118.318 C 129.448 117.607, 127.043 116.771, 125.076 116.459 C 120.513 115.736, 118.500 114.644, 118.500 112.891 C 118.500 111.083, 124.196 110.524, 128.244 111.935 C 129.938 112.526, 131.530 112.803, 131.782 112.551 C 133.199 111.135, 130.430 104.337, 126.859 100.463 C 123.049 96.330, 114.715 91.952, 113.317 93.349 C 112.967 93.700, 113.202 95.730, 113.840 97.860 C 114.478 99.989, 115 102.949, 115 104.436 C 115 106.641, 114.600 107.080, 112.829 106.820 C 111.100 106.565, 110.338 105.282, 109.078 100.500 C 107.154 93.199, 105.397 92.581, 98.963 96.940 C 93.548 100.609, 92 100.752, 92 97.586 C 92 95.766, 93.230 94.415, 97 92.095 C 99.750 90.403, 102 88.801, 102 88.535 C 102 87.749, 96.773 85.292, 93 84.305 C 91.075 83.802, 87.334 83.719, 84.687 84.121 M 518.750 107.785 C 517.237 107.976, 516 108.361, 516 108.640 C 516 108.919, 519.375 114.359, 523.500 120.728 C 527.625 127.098, 531 132.825, 531 133.455 C 531 134.086, 526.957 141.328, 522.015 149.551 C 517.074 157.773, 513.024 164.838, 513.015 165.250 C 513.007 165.662, 515.487 166, 518.527 166 L 524.053 166 531.133 155 C 535.027 148.950, 538.581 144, 539.030 144 C 539.884 144, 546.763 154.104, 551.454 162.250 C 554.186 166.993, 554.198 167, 559.595 167 C 563.688 167, 565 166.643, 565 165.528 C 565 164.718, 560.878 157.284, 555.841 149.009 C 545.304 131.699, 545.321 135.157, 555.695 119.093 C 559.102 113.817, 561.527 109.135, 561.084 108.689 C 559.719 107.316, 551.902 107.669, 550.399 109.173 C 549.623 109.949, 547.078 113.490, 544.744 117.042 C 542.410 120.594, 539.825 123.619, 539 123.764 C 537.641 124.002, 536.211 122.157, 532.312 115.135 C 528.265 107.846, 526.372 106.820, 518.750 107.785 M 208.198 119.708 C 205.995 126.194, 201.449 139.221, 198.096 148.658 C 194.743 158.095, 192 166.082, 192 166.408 C 192 167.155, 198.809 167.158, 201.587 166.412 C 202.771 166.094, 204.603 163.939, 205.824 161.426 L 207.974 157 219.023 157 L 230.071 157 231.987 161.469 C 233.340 164.626, 234.652 166.126, 236.458 166.579 C 239.326 167.299, 246 166.310, 246 165.166 C 246 164.757, 243.030 155.890, 239.399 145.461 C 235.769 135.033, 232.195 124.700, 231.458 122.500 C 230.720 120.300, 229.283 116.250, 228.264 113.500 L 226.412 108.500 219.308 108.208 L 212.204 107.916 208.198 119.708 M 421.483 109.250 C 420.805 111.117, 420.468 129.275, 420.750 148.750 L 421 166 426.500 166 C 430.722 166, 432 165.652, 432 164.500 C 432 162.594, 432.486 162.617, 435.622 164.672 C 439.120 166.964, 449.854 166.797, 453.522 164.394 C 464.364 157.289, 465.459 133.332, 455.265 126.232 C 452.019 123.971, 446.580 122, 443.586 122 C 442.422 122, 439.791 122.900, 437.739 124 C 435.686 125.100, 433.556 126, 433.004 126 C 432.406 126, 432 122.355, 432 117 L 432 108 426.969 108 C 423.852 108, 421.764 108.476, 421.483 109.250 M 271 123.125 C 269.075 123.692, 267.121 124.523, 266.657 124.971 C 266.194 125.419, 264.619 125.161, 263.157 124.399 C 261.696 123.636, 258.830 123.010, 256.789 123.006 L 253.077 123 252.789 144.099 C 252.630 155.703, 252.768 165.629, 253.095 166.157 C 253.422 166.684, 256.122 166.977, 259.095 166.808 L 264.500 166.500 264.819 151.002 C 265.207 132.162, 266.192 130.336, 274.726 132.624 C 276.901 133.207, 276.959 133.611, 277.226 149.860 L 277.500 166.500 283.250 166.800 L 289 167.100 289 151.772 C 289 139.908, 289.332 135.971, 290.469 134.347 C 293.579 129.908, 299.261 130.988, 301.544 136.452 C 302.575 138.919, 303 143.885, 303 153.468 L 303 167 308.597 167 L 314.194 167 313.804 149.250 C 313.329 127.690, 312.442 124.735, 305.916 122.977 C 301.160 121.697, 295.854 122.384, 291.740 124.814 C 289.179 126.326, 288.745 126.320, 285.740 124.741 C 281.498 122.510, 275.365 121.838, 271 123.125 M 335.815 122.918 C 331.077 123.877, 325.641 128.046, 322.239 133.330 C 319.989 136.825, 319.549 138.634, 319.527 144.500 C 319.504 150.577, 319.896 152.129, 322.500 156.271 C 324.150 158.895, 327.300 162.270, 329.500 163.771 C 333.042 166.188, 334.424 166.500, 341.579 166.500 C 348.872 166.500, 350.012 166.230, 353.300 163.721 C 361.905 157.156, 365.215 149.009, 363.107 139.587 C 360.402 127.499, 348.649 120.321, 335.815 122.918 M 387 122.593 C 376.764 126.370, 371.490 132.235, 369.641 141.898 C 368.790 146.346, 371.513 154.953, 375.178 159.400 C 383.361 169.327, 399.819 169.380, 409 159.510 L 411.500 156.823 408.500 154.416 C 404.780 151.433, 404.826 151.432, 399.378 154.624 C 393.348 158.158, 387.146 157.607, 382.680 153.141 C 380.987 151.449, 379.845 149.821, 380.142 149.525 C 380.438 149.228, 388.174 148.842, 397.333 148.667 C 406.491 148.492, 414.244 148.089, 414.561 147.772 C 415.736 146.597, 412.908 135.460, 410.518 131.848 C 407.156 126.767, 400.392 122.966, 393.797 122.452 C 390.884 122.225, 387.825 122.288, 387 122.593 M 480 122.875 C 478.075 123.292, 475.487 124.273, 474.250 125.057 C 472.084 126.428, 469 131.624, 469 133.901 C 469 135.536, 478.019 135.239, 481.364 133.494 C 486.331 130.903, 493 131.758, 493 134.985 C 493 137.451, 491.344 138.466, 485.054 139.854 C 476.234 141.800, 471.291 144.768, 469.004 149.491 C 467.902 151.768, 467 154.182, 467 154.856 C 467 157.624, 471.217 164.061, 473.960 165.479 C 477.718 167.423, 484.051 167.423, 488.699 165.481 C 491.974 164.113, 492.751 164.121, 496.538 165.568 C 498.850 166.451, 501.812 167.022, 503.121 166.836 L 505.500 166.500 505.396 149.441 C 505.282 130.612, 504.615 127.832, 499.499 124.854 C 496.069 122.857, 485.187 121.753, 480 122.875 M 218.183 125 C 217.105 127.545, 213.605 139.259, 212.430 144.250 L 211.783 147 218.892 147 C 224.904 147, 226 146.739, 226 145.307 C 226 143.647, 221.656 128.447, 220.053 124.500 C 219.280 122.595, 219.191 122.619, 218.183 125 M 439.284 131.771 C 438.065 131.968, 435.882 133.540, 434.432 135.263 C 432.041 138.105, 431.832 139.021, 432.178 145.149 C 432.669 153.830, 435.185 157, 441.585 157 C 445.089 157, 446.270 156.467, 448.411 153.923 C 452.869 148.626, 451.758 135.639, 446.640 133.201 C 443.500 131.705, 441.765 131.368, 439.284 131.771 M 336.418 132.969 C 332.268 134.648, 329 139.813, 329 144.694 C 329 148.636, 329.513 149.748, 332.882 153.118 C 336.209 156.444, 337.390 156.999, 341.132 156.996 C 351.523 156.987, 356.968 148.057, 352.423 138.478 C 349.926 133.217, 342.297 130.591, 336.418 132.969 M 387.210 133.508 C 383.530 135.107, 381 137.315, 381 138.929 C 381 140.262, 401.583 140.719, 402.911 139.415 C 403.725 138.616, 399.430 134.695, 396.282 133.362 C 392.326 131.688, 391.364 131.703, 387.210 133.508 M 486.210 147.676 C 478.189 150.513, 477.008 157, 484.512 157 C 488.898 157, 491.933 154.300, 492.661 149.750 C 493.349 145.455, 492.898 145.310, 486.210 147.676" stroke="none" fill="#f3f1f1" fill-rule="evenodd"/></svg>