<svg xmlns="http://www.w3.org/2000/svg" width="968" height="634" viewBox="0 0 968 634" version="1.1"><path d="M 390 135 L 390 227 298 227 L 206 227 206 307 L 206 387 298 387 L 390 387 390 479 L 390 571 470 571 L 550 571 550 479 L 550 387 642 387 L 734 387 734 307 L 734 227 642 227 L 550 227 550 135 L 550 43 470 43 L 390 43 390 135" stroke="none" fill="#dc0c14" fill-rule="evenodd"/><path d="M 0 317.001 L 0 634.002 484.250 633.751 L 968.500 633.500 968.752 316.750 L 969.003 0 484.502 0 L 0 0 0 317.001 M 0.494 317.500 C 0.494 491.850, 0.609 563.026, 0.750 475.669 C 0.891 388.312, 0.891 245.662, 0.750 158.669 C 0.609 71.676, 0.494 143.150, 0.494 317.500 M 390 135 L 390 227 298 227 L 206 227 206 307 L 206 387 298 387 L 390 387 390 479 L 390 571 470 571 L 550 571 550 479 L 550 387 642 387 L 734 387 734 307 L 734 227 642 227 L 550 227 550 135 L 550 43 470 43 L 390 43 390 135" stroke="none" fill="#fcfcfc" fill-rule="evenodd"/></svg>