<?xml version="1.0" standalone="yes"?>
<svg xmlns="http://www.w3.org/2000/svg" width="547" height="278">
<path style="fill:#f6f5f3; stroke:none;" d="M0 0L0 278L547 278L547 0L0 0z"/>
<path style="fill:#a3a2a1; stroke:none;" d="M100 81L99 85L100 85L100 81z"/>
<path style="fill:#787061; stroke:none;" d="M100 82L100 83L104 83L100 82z"/>
<path style="fill:#a3a2a1; stroke:none;" d="M103 81L104 82L103 81M111.333 81.6667L111.667 82.3333L111.333 81.6667z"/>
<path style="fill:#787061; stroke:none;" d="M112 81L112 84L113 84L112 81z"/>
<path style="fill:#222220; stroke:none;" d="M113 81L114 97L117 97L115 81L113 81z"/>
<path style="fill:#787061; stroke:none;" d="M115 81L116 82L115 81z"/>
<path style="fill:#a3a2a1; stroke:none;" d="M116 81L116 84L117 84L116 81M127 81L127 82L136 84L127 81M156 85L156 86L171 83L171 84L163 90L173 81L156 85z"/>
<path style="fill:#222220; stroke:none;" d="M100 83L103 99L104 99L106 90L106 89L103 82L100 83z"/>
<path style="fill:#a3a2a1; stroke:none;" d="M104 82L104 87L105 87L104 82z"/>
<path style="fill:#787061; stroke:none;" d="M127 84L131 83L134 85L133 90L134 90L135 85L137 87C137.11 82.6295 129.635 81.1016 127 84z"/>
<path style="fill:#a3a2a1; stroke:none;" d="M126 83L125 89L126 89L126 83z"/>
<path style="fill:#222220; stroke:none;" d="M124 99L127 93L134 101L133 92C127.824 90.448 129.397 87.1732 131 83C125.361 84.8535 124.465 93.6701 124 99z"/>
<path style="fill:#787061; stroke:none;" d="M157 88L163 87L160 91L171 84C166.787 82.5379 159.46 84.2067 157 88M100 84L100 87L101 87L100 84z"/>
<path style="fill:#a3a2a1; stroke:none;" d="M112 84L107 87L107 88C109.792 87.6807 112.794 87.3257 112 84z"/>
<path style="fill:#787061; stroke:none;" d="M116 84L116 92L117 92L116 84z"/>
<path style="fill:#222220; stroke:none;" d="M134 84L135 85L134 84z"/>
<path style="fill:#a3a2a1; stroke:none;" d="M137 84L138 85L137 84M85 105L85 104C77.0025 97.7189 79.7456 85.5739 91 87L91 88C80.0364 88.8294 82.3204 100.022 91 103L91 102C82.4495 97.4544 83.4926 91.1672 92 88L92 86C79.7347 82.671 73.3335 99.2611 85 105z"/>
<path style="fill:#787061; stroke:none;" d="M113.333 85.6667L113.667 86.3333L113.333 85.6667z"/>
<path style="fill:#a3a2a1; stroke:none;" d="M117.333 85.6667L117.667 86.3333L117.333 85.6667z"/>
<path style="fill:#787061; stroke:none;" d="M126 85L126 88L127 88L126 85z"/>
<path style="fill:#a3a2a1; stroke:none;" d="M130 87L134 87C132.444 85.1871 131.556 85.1871 130 87z"/>
<path style="fill:#222220; stroke:none;" d="M135 85L133 91C136.39 89.9212 138.323 87.541 135 85z"/>
<path style="fill:#a3a2a1; stroke:none;" d="M138 85L133 93L134 97L135 97L134 93C137.823 91.5373 139.548 89.0003 138 85M153 85L145 100L146 100L153 85z"/>
<path style="fill:#787061; stroke:none;" d="M154 85L150 92L156 86L154 85M87 102C83.287 95.7379 81.9124 89.4073 91 88C81.9434 81.4485 80.5724 96.9049 87 102M129.333 86.6667L129.667 87.3333L129.333 86.6667z"/>
<path style="fill:#f6f5f3; stroke:none;" d="M131 86L130 90L134 87L131 86z"/>
<path style="fill:#222220; stroke:none;" d="M154 86C150.701 98.2483 138.508 113.759 130.873 124C128.919 126.62 123.796 136.009 119.522 133.338C117.063 131.8 118.186 128.109 118.954 125.985C121.954 117.694 123.498 94.4649 107.019 103.028C93.0394 110.291 109.529 125.244 104 135L104 136C115.653 152.381 109.958 165.931 102 182C106.318 183.617 119.495 186.787 122.972 182.397C124.957 179.891 123.886 174.986 124.17 172C124.902 164.304 125.576 156.368 128.1 149C131.913 137.872 138.625 127.574 143.742 117C147.026 110.213 149.049 102.097 153.637 96.0432C156.306 92.5222 160.278 90.4795 163 87L154 86M163.667 86.3333L164.333 86.6667L163.667 86.3333z"/>
<path style="fill:#a3a2a1; stroke:none;" d="M100 87L100 92L101 92L100 87z"/>
<path style="fill:#787061; stroke:none;" d="M104 87L105 91L113 92L114 92L113 87L104 87M101 88L101 95L102 95L101 88z"/>
<path style="fill:#a3a2a1; stroke:none;" d="M129 88C129.609 90.8409 131.428 91.742 133 89L129 88M133 88L134 89L133 88z"/>
<path style="fill:#787061; stroke:none;" d="M137.333 88.6667L137.667 89.3333L137.333 88.6667z"/>
<path style="fill:#a3a2a1; stroke:none;" d="M117 89L117 93L118 93L117 89z"/>
<path style="fill:#787061; stroke:none;" d="M125 89L124 95L125 95L125 89M128 89L129 90L128 89z"/>
<path style="fill:#222220; stroke:none;" d="M81 90C79.4209 96.6544 80.8541 103.988 89 104C84.9988 99.3141 81.6007 96.5416 83 90L81 90z"/>
<path style="fill:#a3a2a1; stroke:none;" d="M105 95L106 95C107.806 91.7507 109.383 91.4013 113 92C109.722 88.2533 105.719 90.6936 105 95M124.333 90.6667L124.667 91.3333L124.333 90.6667z"/>
<path style="fill:#787061; stroke:none;" d="M136 90L137 91L136 90z"/>
<path style="fill:#a3a2a1; stroke:none;" d="M161 90L162 91L161 90z"/>
<path style="fill:#787061; stroke:none;" d="M80 91L81 92L80 91M129 91L129 92L136 92L129 91M158 91L153 96L159 92L158 91z"/>
<path style="fill:#a3a2a1; stroke:none;" d="M159.667 91.3333L160.333 91.6667L159.667 91.3333z"/>
<path style="fill:#787061; stroke:none;" d="M104 92L105 93L104 92z"/>
<path style="fill:#a3a2a1; stroke:none;" d="M113 92C113.156 96.6758 115.85 100.592 119 95L118 95L117 98L115 98L113 92M158 92L159 93L158 92z"/>
<path style="fill:#787061; stroke:none;" d="M79 93L79 98L80 98L79 93M117 93L117 97L118 97L117 93z"/>
<path style="fill:#a3a2a1; stroke:none;" d="M123 93C121.739 99.1069 125.264 101.692 129 96L130 99L131 99L130 94L128 94L127 99L123 99L123 93z"/>
<path style="fill:#787061; stroke:none;" d="M127 95L130 94L127 95M149 93L150 94L149 93z"/>
<path style="fill:#a3a2a1; stroke:none;" d="M156 93L157 94L156 93M155 94L156 95L155 94M101 95C101.577 98.4745 102.526 99.4235 106 100L106 99L102 99L101 95z"/>
<path style="fill:#787061; stroke:none;" d="M105 95L104 99L105 95M130 95L131 96L130 95M133 95L134 96L133 95M148 95L149 96L148 95z"/>
<path style="fill:#a3a2a1; stroke:none;" d="M154 95L155 96L154 95M106.333 96.6667L106.667 97.3333L106.333 96.6667z"/>
<path style="fill:#787061; stroke:none;" d="M123 96L123 99L124 99L123 96z"/>
<path style="fill:#a3a2a1; stroke:none;" d="M153 96L148 109L149 109L153 96z"/>
<path style="fill:#787061; stroke:none;" d="M115.667 97.3333L116.333 97.6667L115.667 97.3333M126 97L125 99L127 99L126 97M131 97C131.946 100.141 132.708 101.069 136 101L136 100L133 101L131 97M134.333 97.6667L134.667 98.3333L134.333 97.6667M147 97L148 98L147 97M152 97L153 98L152 97z"/>
<path style="fill:#a3a2a1; stroke:none;" d="M68 98L67 102L68 102L68 98M92 101L92 102L98 99C94.5635 103.045 91.3029 104.724 86 105L86 106C91.9263 105.861 96.0602 104.372 99 99L92 101z"/>
<path style="fill:#787061; stroke:none;" d="M102 98L103 99L102 98z"/>
<path style="fill:#a3a2a1; stroke:none;" d="M135.333 98.6667L135.667 99.3333L135.333 98.6667z"/>
<path style="fill:#787061; stroke:none;" d="M68 99L68 102L71 101L71 104L72 105L74 104L75 108L78 107L68 99z"/>
<path style="fill:#a3a2a1; stroke:none;" d="M70 99L71 100L70 99z"/>
<path style="fill:#787061; stroke:none;" d="M80 99L81 100L80 99M88 104L88 105C92.6658 104.519 95.6203 103.114 98 99L88 104M146 99L147 100L146 99M151 99L152 100L151 99z"/>
<path style="fill:#a3a2a1; stroke:none;" d="M71 100L72 101L71 100z"/>
<path style="fill:#787061; stroke:none;" d="M81.3333 100.667L81.6667 101.333L81.3333 100.667z"/>
<path style="fill:#a3a2a1; stroke:none;" d="M99 115L100 115C101.175 102.053 115.255 96.304 122 109C123.267 102.71 114.21 99.1901 109.001 100.423C101.971 102.086 99.1576 108.449 99 115M131 100L132 101L131 100M136 100L137 101L136 100z"/>
<path style="fill:#787061; stroke:none;" d="M145 100L146 101L145 100z"/>
<path style="fill:#222220; stroke:none;" d="M70 101L70 103L72 103L70 101z"/>
<path style="fill:#a3a2a1; stroke:none;" d="M72 101L73 102L72 101z"/>
<path style="fill:#787061; stroke:none;" d="M108 101L108 102L115 102L108 101z"/>
<path style="fill:#a3a2a1; stroke:none;" d="M132 101L133 102L132 101M135 101L134 103L136 103L135 101M144 101L136 115L137 115L144 101z"/>
<path style="fill:#787061; stroke:none;" d="M150.333 101.667L150.667 102.333L150.333 101.667z"/>
<path style="fill:#a3a2a1; stroke:none;" d="M69 102L70 103L69 102M73 102L74 103L73 102z"/>
<path style="fill:#787061; stroke:none;" d="M82 102L83 103L82 102M88 102L89 103L88 102M106 102L107 103L106 102M116 102L117 103L116 102M144 102L145 103L144 102z"/>
<path style="fill:#a3a2a1; stroke:none;" d="M70 103L71 104L70 103M75 103L76 104L75 103z"/>
<path style="fill:#787061; stroke:none;" d="M83.6667 103.333L84.3333 103.667L83.6667 103.333M105 103L106 104L105 103M118 103L119 104L118 103M149.333 103.667L149.667 104.333L149.333 103.667z"/>
<path style="fill:#a3a2a1; stroke:none;" d="M71 104L72 105L71 104z"/>
<path style="fill:#222220; stroke:none;" d="M73 104L74 105L73 104z"/>
<path style="fill:#a3a2a1; stroke:none;" d="M76 104L77 105L76 104z"/>
<path style="fill:#787061; stroke:none;" d="M85.6667 104.333L86.3333 104.667L85.6667 104.333M104 104L105 105L104 104M119 104L120 105L119 104M143 104L144 105L143 104z"/>
<path style="fill:#a3a2a1; stroke:none;" d="M73 105L65 107L65 108L75 108L73 105M77 105L78 106L77 105z"/>
<path style="fill:#787061; stroke:none;" d="M103 105L104 106L103 105M120 105L121 106L120 105z"/>
<path style="fill:#a3a2a1; stroke:none;" d="M78 106L78 107L82 109L78 106z"/>
<path style="fill:#787061; stroke:none;" d="M102 106L103 107L102 106M142 106L143 107L142 106M148.333 106.667L148.667 107.333L148.333 106.667z"/>
<path style="fill:#e6a944; stroke:none;" d="M284 106L282 125L287 126C287 119.86 288.549 110.569 284 106z"/>
<path style="fill:#222220; stroke:none;" d="M60 109C61.4534 114.167 76.2999 111.531 81 110C76.7498 105.801 66.0168 109 60 109z"/>
<path style="fill:#787061; stroke:none;" d="M79 107L80 108L79 107M101 107L101 110L102 110L101 107M121 107L122 108L121 107M141 107L142 108L141 107z"/>
<path style="fill:#e6a944; stroke:none;" d="M157 107C157 112.466 153.878 123.846 160 126L164 120C165.657 124.139 167.543 125.657 172 126C168.439 116.739 167.824 116.459 171 107L160 113L160 107L157 107M239 107L239 126C243.7 124.44 242.997 120.346 243 116C245.065 118.429 248.351 125.364 251.956 125.364C256.9 125.364 255.314 115.022 253 113L254 107C249.3 108.56 250.003 112.654 250 117C246.897 112.397 244.999 107.477 239 107M339 126L339 107C332.843 109.043 332.843 123.957 339 126M364 122C361.445 121.476 358.474 122.277 356.045 121.447C343.223 117.064 360.617 111.864 364 111L364 109C361.674 107.88 359.644 107.068 356.998 107.086C335.61 107.239 354.848 139.002 364 122M429 126L433 126L433 107C426.727 109.096 429 120.471 429 126M462 108L463 127C468.349 123.792 466.136 113.72 467 108L462 108z"/>
<path style="fill:#a3a2a1; stroke:none;" d="M59 108L59 113L60 113L61 109L59 108z"/>
<path style="fill:#787061; stroke:none;" d="M61 108L61 109L74 109L61 108M80 108L81 109L80 108z"/>
<path style="fill:#a3a2a1; stroke:none;" d="M97 108L96 110L98 110L97 108z"/>
<path style="fill:#787061; stroke:none;" d="M147 108L146 112L147 112L147 108M59 109L59 112L60 112L59 109M81 109L79 112L81 109z"/>
<path style="fill:#e6a944; stroke:none;" d="M95 109L84 120L84 118L76 129C75.6388 149.647 65.9066 162.933 80.5031 181.999C83.1915 185.511 85.995 189.045 90 191L92 168L92 167C86.106 167.131 82.3563 167.397 79 162L82 159C85.6606 159.32 86.9246 158.521 88 155L81 156L84 147L85 147L91 150C89.0665 141.784 88.8028 125.317 96 120L96 126L99 125L96 117C98.0197 114.057 97.3668 111.589 95 109z"/>
<path style="fill:#787061; stroke:none;" d="M122 109L122 119L123 119L122 109M140 109L141 110L140 109z"/>
<path style="fill:#e6a944; stroke:none;" d="M273 109L274 126L280 126C278.94 122.066 275.759 118.778 280 116L277 109L273 109z"/>
<path style="fill:#787061; stroke:none;" d="M100 110L106 131L107 131L100 110z"/>
<path style="fill:#a3a2a1; stroke:none;" d="M123 110L123 118L124 118L123 110M147 110L148 111L147 110z"/>
<path style="fill:#787061; stroke:none;" d="M60 112L60 113L73 121L65 114L65 113L77 112L60 112z"/>
<path style="fill:#a3a2a1; stroke:none;" d="M77.6667 111.333L78.3333 111.667L77.6667 111.333M80.6667 111.333L81.3333 111.667L80.6667 111.333z"/>
<path style="fill:#787061; stroke:none;" d="M139 111L140 112L139 111z"/>
<path style="fill:#a3a2a1; stroke:none;" d="M66 112L66 113L77 113L66 112z"/>
<path style="fill:#787061; stroke:none;" d="M138 112L139 113L138 112z"/>
<path style="fill:#a3a2a1; stroke:none;" d="M146 112L144 118L145 118L146 112z"/>
<path style="fill:#e6a944; stroke:none;" d="M185 126L185 122L178 120L187 119C180.157 103.946 166.998 121.059 176.344 125.397C178.821 126.546 182.341 126 185 126M189 112C187.988 116.892 186.177 124.067 192 126L196 116C196.539 118.256 196.41 123.476 198.545 124.824C202.904 127.576 201.292 115.43 199.4 113.607C197 111.294 192.08 112.491 189 112M211 119C207.85 115.85 206.886 112.891 202 114C205.398 120.643 206.654 124.672 205 132C211.919 130.871 216.756 118.413 216 112L211 119M218 116L221 117L221 118C210.82 123.673 225.463 126 230 126C229.996 119.68 224.531 104.158 218 116z"/>
<path style="fill:#a3a2a1; stroke:none;" d="M253 112L254 113L253 112z"/>
<path style="fill:#e6a944; stroke:none;" d="M260 118C250.302 123.836 264.757 126.59 270 125C269.406 121.801 269.832 116.117 267.397 113.742C263.793 110.228 256.926 112.968 260 118M304 118L305 118L305 126L309 126L311 116L313 116L314 126L318 126C317.999 115.592 315.993 111.214 305 113L305 117C303.377 115.705 301.78 114.09 299.906 113.161C282.272 104.427 291.563 137.488 301.861 123.687C303.048 122.096 303.453 119.863 304 118M323 118C314.429 126.491 336.615 130.822 332.427 117.044C331.847 115.134 330.758 113.539 328.867 112.747C324.57 110.947 320.441 113.811 323 118M370.059 113.032C362.357 117.108 367.395 129.528 375.891 125.527C383.854 121.778 378.17 108.741 370.059 113.032M383 112L383 127L390 117L391 126L394 126C394.102 117.36 398.898 117.36 399 126L403 126C403 110.42 396.495 112.837 383 112M406 113L405 125L409 126L410 117L418 126L418 117L422 117L423 126C428.025 124.332 428.533 115.996 423.721 113.218C419.323 110.679 410.878 112.794 406 113M439 121C428.735 127.802 457.749 126.159 443 118L443 117L447 115C441.438 109.325 433.866 113.765 439 121M455 123L450 121C448.442 131.284 466.81 123.965 456 118L456 117L460 116C458.132 112.612 449.651 109.85 449.636 116.146C449.629 118.963 453.269 121.162 455 123M474.019 112.667C465.309 114.487 469.162 127.854 477.956 125.677C486.455 123.574 482.196 110.958 474.019 112.667M486 112C484.593 116.76 483.342 124.122 489 126L492 116C493.005 120.208 492.402 124.474 497 126C498.299 114.654 496.561 113.181 486 112z"/>
<path style="fill:#a3a2a1; stroke:none;" d="M61 113L62 114L61 113M65 113L66 114L65 113z"/>
<path style="fill:#787061; stroke:none;" d="M145 113L146 114L145 113z"/>
<path style="fill:#a3a2a1; stroke:none;" d="M62 114L65 116L62 114M66 114L67 115L66 114z"/>
<path style="fill:#787061; stroke:none;" d="M137 114L138 115L137 114z"/>
<path style="fill:#a3a2a1; stroke:none;" d="M68 115L69 116L68 115z"/>
<path style="fill:#787061; stroke:none;" d="M136 115L137 116L136 115M144 115L145 116L144 115z"/>
<path style="fill:#a3a2a1; stroke:none;" d="M65 116L66 117L65 116z"/>
<path style="fill:#222220; stroke:none;" d="M67 116L68 117L67 116z"/>
<path style="fill:#a3a2a1; stroke:none;" d="M69.6667 116.333L70.3333 116.667L69.6667 116.333M85 116L84 120L87 116L85 116M100 116L100 119L101 119L100 116M135 116L134 118L135 116z"/>
<path style="fill:#f6f5f3; stroke:none;" d="M179.667 116.333L180.333 116.667L179.667 116.333M222.667 116.333L223.333 116.667L222.667 116.333M262.667 116.333L263.333 116.667L262.667 116.333M295.279 117.255C292.902 118.452 293.992 122.675 296.737 121.658C299.569 120.609 298.218 115.776 295.279 117.255M325.667 116.333L326.333 116.667L325.667 116.333M371.589 117.083C368.831 119.017 371.657 123.81 374.397 121.292C376.618 119.251 374.324 115.164 371.589 117.083M475.263 117.06C472.259 117.672 473.918 122.763 476.721 121.655C479.295 120.638 477.914 116.52 475.263 117.06z"/>
<path style="fill:#a3a2a1; stroke:none;" d="M66 117L67 118L66 117M71 117L72 118L71 117z"/>
<path style="fill:#787061; stroke:none;" d="M135 117L136 118L135 117M143 117L142 120L143 117z"/>
<path style="fill:#a3a2a1; stroke:none;" d="M67 118L68 119L67 118z"/>
<path style="fill:#222220; stroke:none;" d="M70 118L72 120L70 118z"/>
<path style="fill:#a3a2a1; stroke:none;" d="M72 118L73 119L72 118z"/>
<path style="fill:#787061; stroke:none;" d="M134 118L129 126L134 118z"/>
<path style="fill:#a3a2a1; stroke:none;" d="M53 119L53 120L57 122L53 119M68 119L69 120L68 119M73 119L71 121L71 122C73.2508 121.527 74.1178 121.14 73 119z"/>
<path style="fill:#e6a944; stroke:none;" d="M100 119L101 120L100 119z"/>
<path style="fill:#a3a2a1; stroke:none;" d="M122 119L121 123L122 123L122 119M133 119L134 120L133 119M143 119L144 120L143 119z"/>
<path style="fill:#787061; stroke:none;" d="M53 120L53 121L53 122L56 124L54 123L57 126L53 120z"/>
<path style="fill:#a3a2a1; stroke:none;" d="M70 120L71 121L70 120M101 120L102 124L103 124L101 120z"/>
<path style="fill:#787061; stroke:none;" d="M121 120L122 121L121 120z"/>
<path style="fill:#a3a2a1; stroke:none;" d="M132 120L133 121L132 120M142 120L138 129L142 120z"/>
<path style="fill:#f6f5f3; stroke:none;" d="M222 123L225 120L222 123M261 120L261 123L264 123L264 120L261 120M324 121L324 122L327 123L327 120L324 121z"/>
<path style="fill:#222220; stroke:none;" d="M54 121L56 124L54 121z"/>
<path style="fill:#f6f5f3; stroke:none;" d="M90 121L91 122L90 121z"/>
<path style="fill:#a3a2a1; stroke:none;" d="M131 121L132 122L131 121z"/>
<path style="fill:#787061; stroke:none;" d="M141 121L142 122L141 121z"/>
<path style="fill:#f6f5f3; stroke:none;" d="M439 121L439 122L442 123L439 121z"/>
<path style="fill:#a3a2a1; stroke:none;" d="M53.3333 122.667L53.6667 123.333L53.3333 122.667z"/>
<path style="fill:#e6a944; stroke:none;" d="M101 122L102 123L101 122z"/>
<path style="fill:#787061; stroke:none;" d="M120 122L118 129L119 129L120 122z"/>
<path style="fill:#a3a2a1; stroke:none;" d="M57 123L58 124L57 123M68 123L68 124L71 124L68 128L68 129L72 123L68 123M130 123L131 124L130 123z"/>
<path style="fill:#787061; stroke:none;" d="M140 123L141 124L140 123z"/>
<path style="fill:#a3a2a1; stroke:none;" d="M54 124L55 125L54 124M58 124C60.3586 127.52 63.3484 125.954 67 125L67 124L58 124z"/>
<path style="fill:#787061; stroke:none;" d="M64 125L64 126L69 125L64 125z"/>
<path style="fill:#222220; stroke:none;" d="M69 124L59 127L59 130L51 129L51 132L68 135L62 129C65.3142 128.698 69.9297 128.194 69 124z"/>
<path style="fill:#787061; stroke:none;" d="M70 124L70 127L71 127L70 124z"/>
<path style="fill:#a3a2a1; stroke:none;" d="M103.333 124.667L103.667 125.333L103.333 124.667M120 124L121 125L120 124M129 124L130 125L129 124M55 125L56 126L55 125z"/>
<path style="fill:#222220; stroke:none;" d="M57.3333 125.667L57.6667 126.333L57.3333 125.667z"/>
<path style="fill:#e6a944; stroke:none;" d="M100.333 125.667L100.667 126.333L100.333 125.667z"/>
<path style="fill:#a3a2a1; stroke:none;" d="M128 125L125 130L128 125z"/>
<path style="fill:#787061; stroke:none;" d="M139.333 125.667L139.667 126.333L139.333 125.667z"/>
<path style="fill:#a3a2a1; stroke:none;" d="M56 126C52.3427 128.295 49.7796 128.125 49 133L60 135L60 134L50 132L51 128L58 130L56 126z"/>
<path style="fill:#787061; stroke:none;" d="M58 126L58 130L59 130L58 126M62 126L63 127L62 126z"/>
<path style="fill:#a3a2a1; stroke:none;" d="M78 126L77 130L78 130L78 126M104 126L105 140L106 140L104 126M119 126L119 129L120 129L119 126z"/>
<path style="fill:#787061; stroke:none;" d="M69 127L70 128L69 127M128 127L129 128L128 127M138 127L139 128L138 127M51.6667 128.333L52.3333 128.667L51.6667 128.333M66.6667 128.333L67.3333 128.667L66.6667 128.333M127 128L128 129L127 128M50 129L50 132L51 132L50 129M55 129L56 130L55 129M62 129L62 132L64 132L64 129L62 129z"/>
<path style="fill:#a3a2a1; stroke:none;" d="M63 130L63 131L68 132L68 136L62 135L62 136C72.9084 141.454 66.0118 128.953 66 129L63 130M118 129C118.817 134.102 121.62 134.921 125 131L120 134L118 129z"/>
<path style="fill:#787061; stroke:none;" d="M126 129L127 130L126 129M137 129L138 130L137 129z"/>
<path style="fill:#a3a2a1; stroke:none;" d="M206 131L209 129L206 131z"/>
<path style="fill:#787061; stroke:none;" d="M125.333 130.667L125.667 131.333L125.333 130.667z"/>
<path style="fill:#a3a2a1; stroke:none;" d="M137 130L132 141L133 141L137 130z"/>
<path style="fill:#787061; stroke:none;" d="M117 131L118 132L117 131M136 131L137 132L136 131M52 132L52 133L55 133L52 132M65 132L65 133L68 134L65 132z"/>
<path style="fill:#a3a2a1; stroke:none;" d="M75 132L75 134L77 132L75 132z"/>
<path style="fill:#787061; stroke:none;" d="M124 132L125 133L124 132M57 133L57 134L60 134L57 133M104 133L104 135L106 133L104 133M118 133L119 134L118 133M123 133L124 134L123 133M135 133L136 134L135 133M60 134L60 135L63 135L60 134M119 134L120 135L119 134M122 134L123 135L122 134M64.6667 135.333L65.3333 135.667L64.6667 135.333M67 135L68 136L67 135M134 135L135 136L134 135M104 136L105 137L104 136z"/>
<path style="fill:#e6a944; stroke:none;" d="M153 136L144 153C138.394 151.803 131.75 153.759 129 159L128 157L127 157L129 164C124.14 167.151 126 175.769 126 181L129 178L140 175L139 177C141.308 176.089 147.346 172.648 142 172L142 171L145 165C155.875 161.856 159.433 144.645 153 136z"/>
<path style="fill:#787061; stroke:none;" d="M105 137L106 138L105 137M133 137L134 138L133 137z"/>
<path style="fill:#a3a2a1; stroke:none;" d="M163 137L162 150C167.447 146.968 166.531 141.421 163 137z"/>
<path style="fill:#e6a944; stroke:none;" d="M263 137C260.248 142.157 258.72 154.192 264 158L265 150L272 150L272 155L273 155L274 153L275 157L276 157L277 139L273 138L273 145L266 146L263 137z"/>
<path style="fill:#787061; stroke:none;" d="M132.333 138.667L132.667 139.333L132.333 138.667z"/>
<path style="fill:#e6a944; stroke:none;" d="M355 138L355 157L359 157L359 151L368 156C365.139 144.714 370.254 138.002 355 138M371 138L371 157L375 157L375 138L371 138M394 138L394 157L398 157L402 147L403 157L407 157C406.999 149.073 407.359 143.111 398 143L394 138z"/>
<path style="fill:#787061; stroke:none;" d="M106 139L108 142L106 139M131.333 140.667L131.667 141.333L131.333 140.667z"/>
<path style="fill:#e6a944; stroke:none;" d="M418 157L418 153L414 148L418 146L418 144C406.535 135.029 406.123 156.611 418 157z"/>
<path style="fill:#a3a2a1; stroke:none;" d="M106 141L107 142L106 141z"/>
<path style="fill:#787061; stroke:none;" d="M163 141L163 144L164 144L163 141z"/>
<path style="fill:#a3a2a1; stroke:none;" d="M373 141L374 142L373 141M107 142L108 147L109 147L107 142M131 142L130 146L131 146L131 142z"/>
<path style="fill:#f6f5f3; stroke:none;" d="M359 143L360 147L364 146L363 142L359 143z"/>
<path style="fill:#787061; stroke:none;" d="M108.333 143.667L108.667 144.333L108.333 143.667M130 143L131 144L130 143z"/>
<path style="fill:#e6a944; stroke:none;" d="M227.059 143.758C218.36 147.1 225.075 160.354 233.656 156.397C241.104 152.961 234.516 140.892 227.059 143.758M239 157L242 157L243 157L245 147L247 147L248 157L252 157C252 152.497 247.74 134.229 239.988 144.628C237.849 147.498 239 153.6 239 157M292 157L292 143C288.503 144.161 283.763 158.047 283.019 146.16C282.955 145.131 283.004 144.02 283 143C278.427 144.518 276.862 152.999 281.318 155.972C284.088 157.821 288.831 157 292 157M295 143L295 157L299 157C299.039 152.682 299.032 149.318 303 147L304 157C308.403 155.708 307.842 151.003 308 147L311 147L311 157L316 157C316 140.932 308.809 143.657 295 143M318 145C320.662 155.46 318.517 156.846 331 157C330.883 147.716 328.791 140.454 318 145M337 157C337.016 152.579 336.849 149.289 341 147L345 158C345.61 155.936 345.961 154.169 345.982 151.995C345.998 150.398 346.042 148.653 345.566 147.109C341.223 133.001 323.225 154.601 337 157M390 143C386.886 143.193 383.053 142.707 380.303 144.46C369.439 151.385 386.767 172.597 390.682 157.956C391.267 155.768 391.008 153.242 390.999 151C390.988 148.154 390.804 145.719 390 143M419 145L426 154L420 152L419 153C423.377 160.886 435.624 153.774 427 149L427 148L430 144L419 145z"/>
<path style="fill:#787061; stroke:none;" d="M129 145L127 153L128 153L129 145M109.333 146.667L109.667 147.333L109.333 146.667z"/>
<path style="fill:#a3a2a1; stroke:none;" d="M84 147L83 149L84 147M95 147L94 151L84 150L83 154L83 155L88 155L87 152L93 151L91 154L91 155L94 160L95 160L93 156C98.8671 155.979 102.017 155.563 101 149L97 147L95 147M129.333 147.667L129.667 148.333L129.333 147.667z"/>
<path style="fill:#f6f5f3; stroke:none;" d="M229.278 148.345C226.762 149.341 228.088 153.699 230.722 152.655C233.238 151.659 231.912 147.301 229.278 148.345M322 147L322 148L325 148L322 147M383 147C381.098 155.345 390.434 149.994 383 147M425.667 147.333L426.333 147.667L425.667 147.333z"/>
<path style="fill:#787061; stroke:none;" d="M80 155L85 154L84 150L87 151L86 148C81.772 149.141 80.3416 150.603 80 155z"/>
<path style="fill:#a3a2a1; stroke:none;" d="M109 148L109 151L110 151L109 148z"/>
<path style="fill:#787061; stroke:none;" d="M110 149L110 153L111 153L110 149M99 150C97.8781 152.66 97.6063 153.334 100 155L99 150z"/>
<path style="fill:#a3a2a1; stroke:none;" d="M128 150L127 157L128 157L128 150z"/>
<path style="fill:#222220; stroke:none;" d="M81 151L81 153L83 153L81 151z"/>
<path style="fill:#787061; stroke:none;" d="M88 151C86.7637 157.389 85.8845 160.439 80 164L80 166L99 167L99 166L94 166L95 163L94 163L93 165L93 161L101 166L93 157L89 158L91 154L90 151L88 151z"/>
<path style="fill:#222220; stroke:none;" d="M90 151L89 152L92 154L90 151z"/>
<path style="fill:#787061; stroke:none;" d="M91 151L92 154L93 154L93 151L91 151z"/>
<path style="fill:#a3a2a1; stroke:none;" d="M162 151L160 162L157 162C153.795 183.148 123.568 191.308 106 188L105 189L105 191L130 192L130 188C140.924 190.883 161.741 173.504 160 162C164.201 159.439 165.5 154.66 162 151z"/>
<path style="fill:#f6f5f3; stroke:none;" d="M323 151L322 154L325 154L323 151z"/>
<path style="fill:#a3a2a1; stroke:none;" d="M110 153L110 161L111 161L110 153z"/>
<path style="fill:#e6a944; stroke:none;" d="M128.333 153.667L128.667 154.333L128.333 153.667z"/>
<path style="fill:#787061; stroke:none;" d="M163 153L164 154L163 153z"/>
<path style="fill:#a3a2a1; stroke:none;" d="M273 153L275 157L273 153M153 154L154 155L153 154M81 155L82 156L81 155z"/>
<path style="fill:#e6a944; stroke:none;" d="M89 158L92 155L89 158z"/>
<path style="fill:#787061; stroke:none;" d="M126 155L126 158L127 158L126 155z"/>
<path style="fill:#a3a2a1; stroke:none;" d="M241.333 155.667L241.667 156.333L241.333 155.667z"/>
<path style="fill:#787061; stroke:none;" d="M93 156L94 157L93 156z"/>
<path style="fill:#e6a944; stroke:none;" d="M94 156L97 160L97 159L95 157L100 157L94 156z"/>
<path style="fill:#a3a2a1; stroke:none;" d="M323.667 156.333L324.333 156.667L323.667 156.333M367.667 156.333L368.333 156.667L367.667 156.333M424.667 156.333L425.333 156.667L424.667 156.333z"/>
<path style="fill:#f6f5f3; stroke:none;" d="M95 157L95 159L97 159L95 157z"/>
<path style="fill:#a3a2a1; stroke:none;" d="M98 157C96.3384 161.361 98.2844 162.663 101 166L102 166L100 157L98 157M152 157L151 160L152 157z"/>
<path style="fill:#f6f5f3; stroke:none;" d="M382 157L382 158L386 159L382 157z"/>
<path style="fill:#a3a2a1; stroke:none;" d="M126 158L125 184L140 175L129 178L126 181L126 158M82 159L79 163C82.377 163.127 83.8249 162.477 84 159L82 159M86 159L87 160L86 159z"/>
<path style="fill:#787061; stroke:none;" d="M125 159L125 165L126 165L125 159z"/>
<path style="fill:#f6f5f3; stroke:none;" d="M127 160L129 164L127 160z"/>
<path style="fill:#222220; stroke:none;" d="M82 166L90 162C86.0251 161.433 84.3909 162.866 82 166M93 161C92.6987 162.592 92.6467 166.113 94 163L95 163L94 166L100 166L93 161z"/>
<path style="fill:#787061; stroke:none;" d="M110 161L110 165L111 165L110 161z"/>
<path style="fill:#a3a2a1; stroke:none;" d="M149 162L145 165L142 171L142 172C147.387 171.129 149.806 167.08 151 162L149 162M109 163L109 166L110 166L109 163M89 166L89 167L101 167L89 166z"/>
<path style="fill:#787061; stroke:none;" d="M109.333 166.667L109.667 167.333L109.333 166.667z"/>
<path style="fill:#e6a944; stroke:none;" d="M149 166L150 167L149 166z"/>
<path style="fill:#a3a2a1; stroke:none;" d="M108 167L106 173L107 173L108 167z"/>
<path style="fill:#787061; stroke:none;" d="M108.333 169.667L108.667 170.333L108.333 169.667M124 169L123 184C126.652 181.24 125.655 172.944 124 169M107.333 171.667L107.667 172.333L107.333 171.667M106 173L103 179L106 173z"/>
<path style="fill:#a3a2a1; stroke:none;" d="M105 174L106 175L105 174M104.333 175.667L104.667 176.333L104.333 175.667z"/>
<path style="fill:#787061; stroke:none;" d="M151 175L152 176L151 175z"/>
<path style="fill:#a3a2a1; stroke:none;" d="M103 177L104 178L103 177M102 179L100 183L104 184L104 183L101 182L102 179z"/>
<path style="fill:#e6a944; stroke:none;" d="M134 179L135 180L134 179z"/>
<path style="fill:#787061; stroke:none;" d="M102 180L103 181L102 180M145 180L146 181L145 180M101 181L102 182L101 181M102 182L103 183L102 182M104 183L104 184L107 184L104 183z"/>
<path style="fill:#a3a2a1; stroke:none;" d="M105 184L105 185L124 185L105 184z"/>
<path style="fill:#787061; stroke:none;" d="M109 184L109 185L121 185L109 184M133 187L134 188L133 187M111 190L112 191L111 190z"/>
</svg>
